HIERARCHY
ROOT Root
{
  OFFSET 0.0 0.0 0.0
  CHANNELS 6 Xposition Yposition Zposition Zrotation Yrotation Xrotation
  JOINT Hips
  {
    OFFSET 0.0 100.0 0.0
    CHANNELS 6 Xposition Yposition Zposition Zrotation Yrotation Xrotation
    JOINT Spine1
    {
      OFFSET -0.013727 5.003763 -0.053727
      CHANNELS 3 Zrotation Yrotation Xrotation
      JOINT Spine2
      {
        OFFSET -0.0 7.125301 -0.029825
        CHANNELS 3 Zrotation Yrotation Xrotation
        JOINT Chest
        {
          OFFSET -1e-06 7.550063 -0.815971
          CHANNELS 3 Zrotation Yrotation Xrotation
          JOINT Neck1
          {
            OFFSET -0.181677 26.311295 -0.553348
            CHANNELS 3 Zrotation Yrotation Xrotation
            JOINT Neck2
            {
              OFFSET -3e-06 7.709397 2.302585
              CHANNELS 3 Zrotation Yrotation Xrotation
              JOINT Head
              {
                OFFSET -5e-06 6.128916 1.953709
                CHANNELS 3 Zrotation Yrotation Xrotation
                JOINT HeadEnd
                {
                  OFFSET 0.003598 16.065403 -1.835379
                  CHANNELS 3 Zrotation Yrotation Xrotation
                }
                JOINT Jaw
                {
                  OFFSET 0.002637 0.475592 3.094941
                  CHANNELS 3 Zrotation Yrotation Xrotation
                }
                JOINT LeftEye
                {
                  OFFSET 3.206381 5.380205 7.586883
                  CHANNELS 3 Zrotation Yrotation Xrotation
                }
                JOINT RightEye
                {
                  OFFSET -3.22244 5.361869 7.558234
                  CHANNELS 3 Zrotation Yrotation Xrotation
                }
              }
            }
          }
          JOINT LeftShoulder
          {
            OFFSET 1.621652 23.237164 5.113413
            CHANNELS 3 Zrotation Yrotation Xrotation
            JOINT LeftArm
            {
              OFFSET 14.919846 2e-06 -5.502326
              CHANNELS 3 Zrotation Yrotation Xrotation
              JOINT LeftForeArm
              {
                OFFSET 28.739307 0.0 -0.002588
                CHANNELS 3 Zrotation Yrotation Xrotation
                JOINT LeftHand
                {
                  OFFSET 27.093981 -1e-06 0.002609
                  CHANNELS 3 Zrotation Yrotation Xrotation
                  JOINT LeftHandThumb1
                  {
                    OFFSET 2.276482 -1.392045 3.191413
                    CHANNELS 3 Zrotation Yrotation Xrotation
                    JOINT LeftHandThumb2
                    {
                      OFFSET 4.012836 -1.828127 1.641654
                      CHANNELS 3 Zrotation Yrotation Xrotation
                      JOINT LeftHandThumb3
                      {
                        OFFSET 2.798515 0.0 -3e-06
                        CHANNELS 3 Zrotation Yrotation Xrotation
                        JOINT LeftHandThumbEnd
                        {
                          OFFSET 3.180793 -4e-06 4e-06
                          CHANNELS 3 Zrotation Yrotation Xrotation
                        }
                      }
                    }
                  }
                  JOINT LeftHandIndex1
                  {
                    OFFSET 3.247555 -0.531998 2.296169
                    CHANNELS 3 Zrotation Yrotation Xrotation
                    JOINT LeftHandIndex2
                    {
                      OFFSET 6.364578 0.01206 0.1786
                      CHANNELS 3 Zrotation Yrotation Xrotation
                      JOINT LeftHandIndex3
                      {
                        OFFSET 3.662364 0.0 0.0
                        CHANNELS 3 Zrotation Yrotation Xrotation
                        JOINT LeftHandIndex4
                        {
                          OFFSET 2.329242 4e-06 4e-06
                          CHANNELS 3 Zrotation Yrotation Xrotation
                          JOINT LeftHandIndexEnd
                          {
                            OFFSET 2.759615 -0.180537 -0.113024
                            CHANNELS 3 Zrotation Yrotation Xrotation
                          }
                        }
                      }
                    }
                  }
                  JOINT LeftHandMiddle1
                  {
                    OFFSET 3.163495 0.240981 1.000332
                    CHANNELS 3 Zrotation Yrotation Xrotation
                    JOINT LeftHandMiddle2
                    {
                      OFFSET 6.19078 -0.259278 -1.002548
                      CHANNELS 3 Zrotation Yrotation Xrotation
                      JOINT LeftHandMiddle3
                      {
                        OFFSET 4.35652 -4e-06 -1e-06
                        CHANNELS 3 Zrotation Yrotation Xrotation
                        JOINT LeftHandMiddle4
                        {
                          OFFSET 2.996877 -8e-06 0.0
                          CHANNELS 3 Zrotation Yrotation Xrotation
                          JOINT LeftHandMiddleEnd
                          {
                            OFFSET 2.304287 -0.294569 -0.031741
                            CHANNELS 3 Zrotation Yrotation Xrotation
                          }
                        }
                      }
                    }
                  }
                  JOINT LeftHandRing1
                  {
                    OFFSET 2.882643 -0.053652 -0.322543
                    CHANNELS 3 Zrotation Yrotation Xrotation
                    JOINT LeftHandRing2
                    {
                      OFFSET 5.854541 -0.486202 -1.373841
                      CHANNELS 3 Zrotation Yrotation Xrotation
                      JOINT LeftHandRing3
                      {
                        OFFSET 4.350578 0.0 3e-06
                        CHANNELS 3 Zrotation Yrotation Xrotation
                        JOINT LeftHandRing4
                        {
                          OFFSET 2.651321 7e-06 2e-06
                          CHANNELS 3 Zrotation Yrotation Xrotation
                          JOINT LeftHandRingEnd
                          {
                            OFFSET 1.936105 0.077687 -7.1e-05
                            CHANNELS 3 Zrotation Yrotation Xrotation
                          }
                        }
                      }
                    }
                  }
                  JOINT LeftHandPinky1
                  {
                    OFFSET 2.8655 -0.310005 -1.600378
                    CHANNELS 3 Zrotation Yrotation Xrotation
                    JOINT LeftHandPinky2
                    {
                      OFFSET 5.087849 -1.331141 -1.77123
                      CHANNELS 3 Zrotation Yrotation Xrotation
                      JOINT LeftHandPinky3
                      {
                        OFFSET 3.070974 4e-06 0.0
                        CHANNELS 3 Zrotation Yrotation Xrotation
                        JOINT LeftHandPinky4
                        {
                          OFFSET 1.549672 0.0 1e-06
                          CHANNELS 3 Zrotation Yrotation Xrotation
                          JOINT LeftHandPinkyEnd
                          {
                            OFFSET 1.944893 -0.157802 0.057219
                            CHANNELS 3 Zrotation Yrotation Xrotation
                          }
                        }
                      }
                    }
                  }
                }
              }
            }
          }
          JOINT RightShoulder
          {
            OFFSET -1.380118 23.180309 5.214158
            CHANNELS 3 Zrotation Yrotation Xrotation
            JOINT RightArm
            {
              OFFSET -15.037196 1.2e-05 -5.545604
              CHANNELS 3 Zrotation Yrotation Xrotation
              JOINT RightForeArm
              {
                OFFSET -28.736639 2e-06 -0.002597
                CHANNELS 3 Zrotation Yrotation Xrotation
                JOINT RightHand
                {
                  OFFSET -27.133619 -0.0 0.002613
                  CHANNELS 3 Zrotation Yrotation Xrotation
                  JOINT RightHandThumb1
                  {
                    OFFSET -2.274032 -1.383988 3.163127
                    CHANNELS 3 Zrotation Yrotation Xrotation
                    JOINT RightHandThumb2
                    {
                      OFFSET -4.011429 -1.827466 1.640914
                      CHANNELS 3 Zrotation Yrotation Xrotation
                      JOINT RightHandThumb3
                      {
                        OFFSET -2.794935 -4e-06 -3e-06
                        CHANNELS 3 Zrotation Yrotation Xrotation
                        JOINT RightHandThumbEnd
                        {
                          OFFSET -3.183852 4e-06 1e-06
                          CHANNELS 3 Zrotation Yrotation Xrotation
                        }
                      }
                    }
                  }
                  JOINT RightHandIndex1
                  {
                    OFFSET -3.253266 -0.520057 2.282866
                    CHANNELS 3 Zrotation Yrotation Xrotation
                    JOINT RightHandIndex2
                    {
                      OFFSET -6.341917 0.012471 0.178266
                      CHANNELS 3 Zrotation Yrotation Xrotation
                      JOINT RightHandIndex3
                      {
                        OFFSET -3.654871 -8e-06 -0.0
                        CHANNELS 3 Zrotation Yrotation Xrotation
                        JOINT RightHandIndex4
                        {
                          OFFSET -2.327586 0.0 1e-06
                          CHANNELS 3 Zrotation Yrotation Xrotation
                          JOINT RightHandIndexEnd
                          {
                            OFFSET -2.76179 -0.180656 -0.113078
                            CHANNELS 3 Zrotation Yrotation Xrotation
                          }
                        }
                      }
                    }
                  }
                  JOINT RightHandMiddle1
                  {
                    OFFSET -3.168106 0.246593 1.00103
                    CHANNELS 3 Zrotation Yrotation Xrotation
                    JOINT RightHandMiddle2
                    {
                      OFFSET -6.180828 -0.258836 -1.000895
                      CHANNELS 3 Zrotation Yrotation Xrotation
                      JOINT RightHandMiddle3
                      {
                        OFFSET -4.348901 0.0 -0.0
                        CHANNELS 3 Zrotation Yrotation Xrotation
                        JOINT RightHandMiddle4
                        {
                          OFFSET -3.00024 -4e-06 -2e-06
                          CHANNELS 3 Zrotation Yrotation Xrotation
                          JOINT RightHandMiddleEnd
                          {
                            OFFSET -2.30252 -0.29437 -0.031706
                            CHANNELS 3 Zrotation Yrotation Xrotation
                          }
                        }
                      }
                    }
                  }
                  JOINT RightHandRing1
                  {
                    OFFSET -2.88569 -0.067952 -0.308858
                    CHANNELS 3 Zrotation Yrotation Xrotation
                    JOINT RightHandRing2
                    {
                      OFFSET -5.854198 -0.48613 -1.373731
                      CHANNELS 3 Zrotation Yrotation Xrotation
                      JOINT RightHandRing3
                      {
                        OFFSET -4.33881 -4e-06 -0.0
                        CHANNELS 3 Zrotation Yrotation Xrotation
                        JOINT RightHandRing4
                        {
                          OFFSET -2.654903 -4e-06 4e-06
                          CHANNELS 3 Zrotation Yrotation Xrotation
                          JOINT RightHandRingEnd
                          {
                            OFFSET -1.933568 0.077527 -5.2e-05
                            CHANNELS 3 Zrotation Yrotation Xrotation
                          }
                        }
                      }
                    }
                  }
                  JOINT RightHandPinky1
                  {
                    OFFSET -2.866425 -0.342796 -1.584145
                    CHANNELS 3 Zrotation Yrotation Xrotation
                    JOINT RightHandPinky2
                    {
                      OFFSET -5.091371 -1.332055 -1.772385
                      CHANNELS 3 Zrotation Yrotation Xrotation
                      JOINT RightHandPinky3
                      {
                        OFFSET -3.062664 -4e-06 1e-06
                        CHANNELS 3 Zrotation Yrotation Xrotation
                        JOINT RightHandPinky4
                        {
                          OFFSET -1.546529 4e-06 -2e-06
                          CHANNELS 3 Zrotation Yrotation Xrotation
                          JOINT RightHandPinkyEnd
                          {
                            OFFSET -1.945119 -0.157718 0.057211
                            CHANNELS 3 Zrotation Yrotation Xrotation
                          }
                        }
                      }
                    }
                  }
                }
              }
            }
          }
        }
      }
    }
    JOINT LeftLeg
    {
      OFFSET 10.043214 -8.434526 2.595655
      CHANNELS 3 Zrotation Yrotation Xrotation
      JOINT LeftShin
      {
        OFFSET -1e-06 -43.221752 -0.802913
        CHANNELS 3 Zrotation Yrotation Xrotation
        JOINT LeftFoot
        {
          OFFSET 1e-06 -42.155094 -3.481523
          CHANNELS 3 Zrotation Yrotation Xrotation
          JOINT LeftToeBase
          {
            OFFSET 0.0 -5.059472 13.231529
            CHANNELS 3 Zrotation Yrotation Xrotation
            JOINT LeftToeEnd
            {
              OFFSET -0.009607 -1.647619 6.513017
              CHANNELS 3 Zrotation Yrotation Xrotation
            }
          }
        }
      }
    }
    JOINT RightLeg
    {
      OFFSET -10.047278 -8.29526 2.620317
      CHANNELS 3 Zrotation Yrotation Xrotation
      JOINT RightShin
      {
        OFFSET 1e-06 -43.362206 -0.805556
        CHANNELS 3 Zrotation Yrotation Xrotation
        JOINT RightFoot
        {
          OFFSET 2e-06 -42.117393 -3.478398
          CHANNELS 3 Zrotation Yrotation Xrotation
          JOINT RightToeBase
          {
            OFFSET -0.0 -5.079609 13.284196
            CHANNELS 3 Zrotation Yrotation Xrotation
            JOINT RightToeEnd
            {
              OFFSET 0.009532 -1.634378 6.460591
              CHANNELS 3 Zrotation Yrotation Xrotation
            }
          }
        }
      }
    }
  }
}
MOTION
Frames: 4
Frame Time: 0.03333333333333333
0.0 0.0 0.0 0.0 -0.0 0.0 -4.892059 99.043716 -3.912487 0.360595 -0.023852 -1.452358 -0.165455 0.02543 -1.485538 -0.496094 -0.122914 -5.409561 -0.074301 -1.832842 11.739655 0.844826 2.320824 -0.964849 -0.082248 2.065289 -3.531847 -0.509529 2.175526 -4.024153 7.7e-05 -2.3e-05 6e-06 0.008705 -0.066659 -0.005363 0.753833 -3.78592 -10.621494 -0.73806 3.659599 -10.624976 -22.55504 -5.216757 15.233256 -46.69833 0.419861 11.44719 0.75862 -41.110626 -0.181422 -0.19216 10.249431 -16.115671 -5.882106 9.861286 0.702592 -10.936872 -0.360573 7.156208 -0.0 8.774826 1e-06 -16.256845 17.851135 6.028429 -1.844032 2.498503 -2.507277 -10.163599 4.678946 4.62111 -20.976025 -3e-06 3e-06 -21.226286 2.451699 -3.593999 0.0 -6e-06 0.0 -1.362682 2.240799 -0.746324 -21.334917 0.584912 3.008325 -13.821215 -2e-06 2e-06 -23.887171 -0.249077 -0.839481 -60.112038 2.560331 -1.314713 -0.294025 1.679688 0.833256 -14.218209 0.093216 1.300581 -34.212048 -0.287561 0.967172 -20.033211 0.964538 1.212843 1e-06 -0.0 -1e-06 -3.440389 0.788233 0.501656 -15.928189 -3.16731 2.999709 -6.338827 -0.0 3e-06 -18.123449 3.648185 -4.90567 -2e-06 0.0 -1e-06 17.53371 11.15162 15.452736 51.85574 5.556942 20.007992 0.11755 40.227604 0.226917 3.17188 2.170474 -4.863746 2.243543 -5.255035 -3.180157 14.282887 -0.826595 6.952499 -2e-06 -12.690601 -0.0 16.283344 -17.892822 2.505875 1.665666 -1.955922 -2.878296 4.727797 -4.170587 4.993923 11.020522 2e-06 -2e-06 12.10905 -3.735715 -2.866784 -0.0 0.0 2e-06 1.291984 -1.928549 -1.49809 14.800122 0.567467 3.865606 14.242567 -1.341736 -6.660658 19.631962 0.143925 -0.648245 49.893642 -0.645058 -6.491345 0.353029 -1.511149 -0.031938 20.222786 3.684308 2.316629 18.78727 4e-06 -4e-06 10.751625 -0.479867 1.397904 1e-06 2e-06 -3e-06 3.273805 0.305947 -0.58011 21.486803 11.83037 2.26613 8.162924 1e-06 -2e-06 18.399075 -3.798987 -4.940575 3e-06 0.0 -1e-06 6.413025 11.63707 -0.213041 0.006968 -0.254677 12.536574 -6.382941 -0.765262 -9.626713 1.6413 -1.878764 0.901028 -0.0 -0.0 2e-06 -6.922472 -5.792009 -0.037367 -0.057036 -0.024775 12.430305 9.491824 -2.102029 -10.2982 -1.406164 1.075202 0.59683 -0.0 0.0 -1e-06 
0.0 0.0 0.0 0.0 -0.0 0.0 -4.859203 99.06752 -3.898797 0.346179 0.051853 -1.454559 -0.162314 0.035692 -1.464328 -0.486705 -0.065928 -5.403196 -0.08804 -1.890752 11.725539 0.81085 2.3616 -0.875296 -0.082071 2.091038 -3.518728 -0.525942 2.10271 -4.070487 7.7e-05 -2.3e-05 6e-06 0.008205 -0.046449 -0.010767 0.751582 -3.763532 -10.606828 -0.736915 3.677691 -10.609581 -22.6497 -5.165432 15.334567 -46.591736 0.33479 10.991345 0.563603 -41.205524 -0.165635 -0.200168 10.278696 -15.759839 -5.882108 9.861289 0.70259 -10.936873 -0.360575 7.156207 0.0 8.774828 1e-06 -16.243021 17.824963 6.011755 -1.844033 2.498505 -2.507278 -10.163602 4.678946 4.621109 -20.976027 -3e-06 1e-06 -21.226292 2.451699 -3.594002 1e-06 -6e-06 0.0 -1.362682 2.240799 -0.746323 -21.334917 0.58491 3.008322 -13.821216 -2e-06 1e-06 -23.887175 -0.249079 -0.839485 -60.110897 2.580123 -1.252472 -0.294025 1.679687 0.833256 -14.218211 0.093215 1.300579 -34.212063 -0.287565 0.967168 -20.033218 0.964535 1.212843 1e-06 -1e-06 -1e-06 -3.440389 0.788235 0.501654 -15.928189 -3.16731 2.999707 -6.338827 -0.0 0.0 -18.123451 3.648185 -4.905673 -3e-06 -0.0 -1e-06 17.470652 11.157834 15.538805 51.853184 5.59966 20.011284 0.063929 40.003975 0.200962 3.343489 2.182986 -4.894724 2.243543 -5.255037 -3.180156 14.282892 -0.826596 6.9525 -2e-06 -12.690605 -1e-06 16.255636 -17.897554 2.486498 1.665666 -1.955921 -2.878298 4.727798 -4.170588 4.993925 11.020528 2e-06 -0.0 12.109053 -3.735718 -2.866783 -0.0 0.0 2e-06 1.291985 -1.92855 -1.49809 14.800129 0.567466 3.865608 14.242574 -1.341737 -6.660658 19.631969 0.143926 -0.648248 49.95599 -0.633949 -6.496121 0.35303 -1.511151 -0.03194 20.222794 3.684308 2.316629 18.787273 4e-06 -4e-06 10.751627 -0.479869 1.397905 2e-06 2e-06 -2e-06 3.273807 0.305945 -0.580111 21.486813 11.830373 2.266134 8.162927 0.0 -2e-06 18.399086 -3.798988 -4.940578 4e-06 1e-06 -1e-06 6.392927 11.521815 -0.135275 -0.005087 -0.296718 12.361887 -6.371298 -0.715951 -9.545719 1.646742 -1.900413 0.90297 -0.0 0.0 2e-06 -6.896014 -5.658857 0.143565 -0.065394 -0.016577 12.110888 9.459994 -2.286027 -10.249096 -1.410554 1.057572 0.591298 -0.0 0.0 -1e-06 
0.0 0.0 0.0 0.0 -0.0 0.0 -4.834374 99.064598 -3.885709 0.349303 0.136503 -1.461707 -0.160715 0.03811 -1.445277 -0.480445 -0.041388 -5.402524 -0.097651 -1.906972 11.742403 0.771784 2.421705 -0.788635 -0.077343 2.075325 -3.543868 -0.539244 2.061994 -4.041257 7.7e-05 -2.2e-05 6e-06 0.008899 -0.037109 -0.015527 0.748866 -3.752628 -10.609014 -0.732829 3.685136 -10.607315 -22.698809 -5.132147 15.386555 -46.543373 0.347084 10.590501 0.415516 -41.411785 -0.149952 -0.238038 10.459056 -15.53596 -5.882112 9.861294 0.702591 -10.93688 -0.360574 7.15621 -0.0 8.774833 -0.0 -16.24526 17.846138 6.009328 -1.844034 2.498507 -2.50728 -10.16361 4.67895 4.621111 -20.97604 -2e-06 2e-06 -21.226307 2.4517 -3.594004 0.0 -6e-06 0.0 -1.362684 2.240799 -0.746324 -21.334932 0.584912 3.008325 -13.821225 -1e-06 0.0 -23.887192 -0.249078 -0.839485 -60.123348 2.598078 -1.276394 -0.294024 1.679689 0.833256 -14.218221 0.093216 1.30058 -34.212078 -0.287563 0.967167 -20.033232 0.964537 1.212841 1e-06 -1e-06 -1e-06 -3.440391 0.788235 0.501655 -15.928201 -3.167311 2.999707 -6.338831 -1e-06 2e-06 -18.123465 3.648186 -4.905675 -3e-06 0.0 -2e-06 17.394312 11.182318 15.58759 51.842922 5.564586 20.019464 0.025436 39.897846 0.177104 3.403931 2.109196 -4.884626 2.243544 -5.255039 -3.180156 14.282896 -0.826595 6.952497 -2e-06 -12.69061 -1e-06 16.246243 -17.878622 2.487318 1.665667 -1.955921 -2.878298 4.7278 -4.170588 4.993925 11.020529 3e-06 -2e-06 12.109057 -3.735717 -2.866787 -0.0 0.0 1e-06 1.291986 -1.928551 -1.498088 14.800132 0.567468 3.865605 14.242577 -1.341738 -6.660661 19.631971 0.143928 -0.648248 49.977867 -0.641291 -6.507944 0.353029 -1.511151 -0.03194 20.222797 3.684311 2.316627 18.787281 7e-06 -6e-06 10.751633 -0.479866 1.397905 1e-06 3e-06 -2e-06 3.273808 0.305947 -0.580111 21.486818 11.830381 2.26613 8.16293 3e-06 -4e-06 18.399088 -3.798983 -4.940582 4e-06 1e-06 -0.0 6.3637 11.430387 -0.160116 -0.007444 -0.320068 12.405988 -6.318126 -0.689651 -9.543144 1.652538 -1.909074 0.941486 -0.0 -0.0 2e-06 -6.90015 -5.570821 0.195492 -0.061992 -0.020169 12.075442 9.470528 -2.431011 -10.205089 -1.411629 1.055825 0.618267 -0.0 0.0 -1e-06 
0.0 0.0 0.0 0.0 -0.0 0.0 -4.795776 99.058319 -3.882304 0.353346 0.192661 -1.472896 -0.163798 0.039779 -1.418934 -0.471335 -0.026652 -5.405956 -0.097789 -1.894553 11.759043 0.723892 2.468661 -0.68494 -0.065395 2.080722 -3.573447 -0.534211 2.059394 -4.023983 7.7e-05 -2.2e-05 6e-06 0.009122 -0.037608 -0.020006 0.746727 -3.751816 -10.619107 -0.730189 3.682984 -10.614452 -22.712566 -5.083393 15.413939 -46.542263 0.383602 10.263224 0.319091 -41.634285 -0.134815 -0.217018 10.647477 -15.30225 -5.88211 9.86129 0.70259 -10.936875 -0.360574 7.156206 -0.0 8.774828 -0.0 -16.240198 17.845959 6.007102 -1.844034 2.498506 -2.507278 -10.163604 4.678949 4.621107 -20.976034 -2e-06 -1e-06 -21.226297 2.451699 -3.594004 0.0 -6e-06 0.0 -1.362682 2.240799 -0.746323 -21.334923 0.584911 3.00832 -13.821218 -2e-06 1e-06 -23.887182 -0.249081 -0.839487 -60.118378 2.602581 -1.298939 -0.294025 1.679688 0.833255 -14.218215 0.093216 1.300579 -34.212067 -0.287566 0.967164 -20.033222 0.964535 1.212841 1e-06 -0.0 -1e-06 -3.44039 0.788234 0.501654 -15.928192 -3.16731 2.999705 -6.33883 -1e-06 0.0 -18.123459 3.648183 -4.905675 -3e-06 -0.0 -2e-06 17.314981 11.209917 15.615292 51.832623 5.485912 20.110231 -0.05457 39.889034 0.139902 3.448094 1.998314 -4.808581 2.243543 -5.255039 -3.180158 14.282896 -0.826596 6.9525 -1e-06 -12.690608 1e-06 16.23686 -17.849661 2.502459 1.665667 -1.955922 -2.878299 4.7278 -4.17059 4.993925 11.020531 0.0 -1e-06 12.109058 -3.735717 -2.866785 -0.0 0.0 1e-06 1.291985 -1.92855 -1.498091 14.800131 0.567467 3.865606 14.242577 -1.341738 -6.660659 19.631971 0.143926 -0.648246 49.95295 -0.668538 -6.503392 0.353029 -1.51115 -0.031941 20.222795 3.684308 2.316629 18.787279 3e-06 -5e-06 10.751631 -0.479871 1.397905 2e-06 2e-06 -2e-06 3.273808 0.305947 -0.580112 21.48682 11.830377 2.26613 8.16293 1e-06 -3e-06 18.399094 -3.798987 -4.940581 3e-06 0.0 -0.0 6.330451 11.393909 -0.200661 -0.00512 -0.332096 12.493309 -6.23931 -0.655177 -9.569295 1.655498 -1.909873 0.957613 0.0 0.0 2e-06 -6.92505 -5.521636 0.221179 -0.058106 -0.035981 12.078071 9.497182 -2.490476 -10.225969 -1.411443 1.0509 0.620429 -0.0 0.0 -1e-06 
